<svg width="29" height="30" viewBox="0 0 29 30" fill="none" xmlns="http://www.w3.org/2000/svg">
<path d="M14.3295 0.722534C11.5206 0.722534 8.77469 1.55549 6.43913 3.11606C4.10358 4.67663 2.28323 6.89472 1.20829 9.48986C0.133351 12.085 -0.147902 14.9406 0.400097 17.6956C0.948097 20.4506 2.30074 22.9812 4.28696 24.9674C6.27319 26.9536 8.8038 28.3063 11.5588 28.8543C14.3138 29.4023 17.1694 29.121 19.7645 28.0461C22.3596 26.9711 24.5777 25.1508 26.1383 22.8152C27.6989 20.4797 28.5318 17.7338 28.5318 14.9248C28.5277 11.1594 27.03 7.54945 24.3675 4.88691C21.7049 2.22436 18.0949 0.726711 14.3295 0.722534ZM14.3295 25.9711C12.1448 25.9711 10.0091 25.3232 8.19255 24.1095C6.37601 22.8957 4.96018 21.1705 4.12412 19.1521C3.28805 17.1336 3.0693 14.9126 3.49552 12.7698C3.92175 10.6271 4.9738 8.65882 6.51864 7.11397C8.06349 5.56913 10.0317 4.51708 12.1745 4.09085C14.3173 3.66463 16.5383 3.88338 18.5567 4.71945C20.5752 5.55551 22.3004 6.97134 23.5141 8.78788C24.7279 10.6044 25.3758 12.7401 25.3758 14.9248C25.3726 17.8535 24.2078 20.6614 22.1369 22.7323C20.066 24.8032 17.2582 25.968 14.3295 25.9711ZM19.6541 14.8604C19.8012 15.007 19.9179 15.1812 19.9976 15.373C20.0772 15.5648 20.1182 15.7705 20.1182 15.9782C20.1182 16.1859 20.0772 16.3915 19.9976 16.5833C19.9179 16.7752 19.8012 16.9494 19.6541 17.096L15.446 21.3041C15.2994 21.4512 15.1252 21.5679 14.9334 21.6475C14.7415 21.7272 14.5359 21.7682 14.3282 21.7682C14.1205 21.7682 13.9149 21.7272 13.723 21.6475C13.5312 21.5679 13.357 21.4512 13.2104 21.3041L9.00233 17.096C8.85555 16.9492 8.73911 16.7749 8.65967 16.5831C8.58022 16.3913 8.53934 16.1858 8.53934 15.9782C8.53934 15.7706 8.58022 15.565 8.65967 15.3733C8.73911 15.1815 8.85555 15.0072 9.00233 14.8604C9.14912 14.7136 9.32339 14.5972 9.51517 14.5177C9.70696 14.4383 9.91252 14.3974 10.1201 14.3974C10.3277 14.3974 10.5333 14.4383 10.725 14.5177C10.9168 14.5972 11.0911 14.7136 11.2379 14.8604L12.7515 16.3714V9.66473C12.7515 9.24621 12.9177 8.84483 13.2137 8.54889C13.5096 8.25295 13.911 8.0867 14.3295 8.0867C14.748 8.0867 15.1494 8.25295 15.4454 8.54889C15.7413 8.84483 15.9076 9.24621 15.9076 9.66473V16.3714L17.4211 14.8565C17.568 14.71 17.7422 14.5939 17.9339 14.5148C18.1256 14.4358 18.331 14.3953 18.5384 14.3956C18.7458 14.396 18.9511 14.4372 19.1425 14.517C19.3339 14.5967 19.5078 14.7134 19.6541 14.8604Z" fill="white"/>
</svg>
