<svg width="53" height="53" viewBox="0 0 53 53" fill="none" xmlns="http://www.w3.org/2000/svg">
<circle cx="26.2459" cy="26.4304" r="25.8894" fill="#630C93"/>
<path d="M18.7565 41.9118C18.7565 42.8557 19.5215 43.6206 20.4652 43.6206C21.4089 43.6206 22.1739 42.8557 22.1739 41.9118H18.7565ZM29.3915 41.9118C29.3915 42.8557 30.1565 43.6206 31.1002 43.6206C32.0438 43.6206 32.8089 42.8557 32.8089 41.9118H29.3915ZM20.4652 43.6206C21.4089 43.6206 22.1739 42.8557 22.1739 41.9118C22.1739 40.9682 21.4089 40.2031 20.4652 40.2031V43.6206ZM15.1477 41.9118L15.1303 43.6206H15.1477V41.9118ZM10.5182 37.9317L8.81073 37.995C8.81333 38.0654 8.8203 38.1356 8.83158 38.2053L10.5182 37.9317ZM9.90539 21.3939L11.6129 21.3306C11.61 21.2525 11.6018 21.1746 11.5882 21.0976L9.90539 21.3939ZM12.4388 16.2632L11.662 14.7413L11.651 14.747L12.4388 16.2632ZM23.6821 10.5243L24.459 12.0462L24.4624 12.0444L23.6821 10.5243ZM27.8855 10.5243L27.1052 12.0444L27.1086 12.0462L27.8855 10.5243ZM39.1288 16.2632L39.9166 14.7469L39.9057 14.7413L39.1288 16.2632ZM41.6622 21.3939L39.9793 21.0976C39.9658 21.1745 39.9576 21.2523 39.9547 21.3304L41.6622 21.3939ZM41.0471 37.9317L42.7337 38.2053C42.7451 38.1358 42.7519 38.0657 42.7546 37.9953L41.0471 37.9317ZM36.4176 41.9118V43.6208L36.435 43.6206L36.4176 41.9118ZM31.1002 40.2031C30.1565 40.2031 29.3915 40.9682 29.3915 41.9118C29.3915 42.8557 30.1565 43.6206 31.1002 43.6206V40.2031ZM20.4652 40.2031C19.5215 40.2031 18.7565 40.9682 18.7565 41.9118C18.7565 42.8557 19.5215 43.6206 20.4652 43.6206V40.2031ZM31.1002 43.6206C32.0438 43.6206 32.8089 42.8557 32.8089 41.9118C32.8089 40.9682 32.0438 40.2031 31.1002 40.2031V43.6206ZM22.1739 41.9118V36.5966H18.7565V41.9118H22.1739ZM22.1739 36.5966C22.1739 34.6036 23.7897 32.9879 25.7827 32.9879V29.5705C21.9021 29.5705 18.7565 32.7163 18.7565 36.5966H22.1739ZM25.7827 32.9879C27.7757 32.9879 29.3915 34.6036 29.3915 36.5966H32.8089C32.8089 32.7163 29.663 29.5705 25.7827 29.5705V32.9879ZM29.3915 36.5966V41.9118H32.8089V36.5966H29.3915ZM20.4652 40.2031H15.1477V43.6206H20.4652V40.2031ZM15.1651 40.2034C13.6906 40.1883 12.4409 39.1139 12.2049 37.6583L8.83158 38.2053C9.33375 41.3026 11.9927 43.5887 15.1303 43.6206L15.1651 40.2034ZM12.2258 37.8686L11.6129 21.3306L8.19788 21.4571L8.81073 37.995L12.2258 37.8686ZM11.5882 21.0976C11.3514 19.7525 12.0147 18.4092 13.2267 17.7794L11.651 14.747C9.11495 16.0647 7.72703 18.8755 8.22257 21.6902L11.5882 21.0976ZM13.2157 17.7851L24.459 12.0462L22.9052 9.00235L11.662 14.7413L13.2157 17.7851ZM24.4624 12.0444C25.2919 11.6186 26.2757 11.6186 27.1052 12.0444L28.6658 9.00415C26.8567 8.07544 24.711 8.07544 22.9018 9.00415L24.4624 12.0444ZM27.1086 12.0462L38.3519 17.7851L39.9057 14.7413L28.6624 9.00235L27.1086 12.0462ZM38.341 17.7794C39.553 18.4092 40.2162 19.7525 39.9793 21.0976L43.3449 21.6902C43.8405 18.8755 42.4525 16.0647 39.9166 14.7469L38.341 17.7794ZM39.9547 21.3304L39.3395 37.8684L42.7546 37.9953L43.3698 21.4573L39.9547 21.3304ZM39.3605 37.6583C39.1245 39.1139 37.8748 40.1883 36.4001 40.2034L36.435 43.6206C39.5726 43.5887 42.2316 41.3026 42.7337 38.2053L39.3605 37.6583ZM36.4176 40.2031H31.1002V43.6206L36.4176 43.6208V40.2031ZM20.4652 43.6206H31.1002V40.2031H20.4652V43.6206Z" fill="white"/>
</svg>
