<svg width="29" height="31" viewBox="0 0 29 31" fill="none" xmlns="http://www.w3.org/2000/svg">
<g filter="url(#filter0_d_661_1096)">
<path d="M14.7996 2.43579C12.8304 2.43579 10.9054 3.01973 9.2681 4.11376C7.63076 5.20779 6.35462 6.76278 5.60104 8.58209C4.84745 10.4014 4.65028 12.4033 5.03446 14.3347C5.41863 16.266 6.36689 18.0401 7.75933 19.4326C9.15177 20.825 10.9258 21.7733 12.8572 22.1574C14.7886 22.5416 16.7905 22.3444 18.6098 21.5908C20.4291 20.8373 21.9841 19.5611 23.0781 17.9238C24.1722 16.2865 24.7561 14.3615 24.7561 12.3923C24.7561 11.0848 24.4986 9.79006 23.9982 8.58209C23.4978 7.37411 22.7645 6.27652 21.8399 5.35197C20.9154 4.42743 19.8178 3.69404 18.6098 3.19368C17.4018 2.69332 16.1071 2.43579 14.7996 2.43579ZM15.7953 16.3749C15.7953 16.6389 15.6904 16.8922 15.5036 17.0789C15.3169 17.2656 15.0637 17.3705 14.7996 17.3705C14.5356 17.3705 14.2823 17.2656 14.0956 17.0789C13.9089 16.8922 13.804 16.6389 13.804 16.3749V11.3966C13.804 11.1326 13.9089 10.8793 14.0956 10.6926C14.2823 10.5059 14.5356 10.401 14.7996 10.401C15.0637 10.401 15.3169 10.5059 15.5036 10.6926C15.6904 10.8793 15.7953 11.1326 15.7953 11.3966V16.3749ZM14.7996 9.40532C14.6027 9.40532 14.4102 9.34693 14.2465 9.23753C14.0827 9.12812 13.9551 8.97262 13.8798 8.79069C13.8044 8.60876 13.7847 8.40857 13.8231 8.21543C13.8615 8.0223 13.9563 7.84489 14.0956 7.70565C14.2348 7.5664 14.4122 7.47158 14.6054 7.43316C14.7985 7.39474 14.9987 7.41446 15.1806 7.48982C15.3626 7.56518 15.5181 7.69279 15.6275 7.85652C15.7369 8.02026 15.7953 8.21276 15.7953 8.40968C15.7953 8.67374 15.6904 8.92698 15.5036 9.1137C15.3169 9.30042 15.0637 9.40532 14.7996 9.40532Z" fill="#F9F9F9"/>
</g>
<defs>
<filter id="filter0_d_661_1096" x="0.637834" y="2.43579" width="28.3236" height="28.3235" filterUnits="userSpaceOnUse" color-interpolation-filters="sRGB">
<feFlood flood-opacity="0" result="BackgroundImageFix"/>
<feColorMatrix in="SourceAlpha" type="matrix" values="0 0 0 0 0 0 0 0 0 0 0 0 0 0 0 0 0 0 127 0" result="hardAlpha"/>
<feOffset dy="4.20531"/>
<feGaussianBlur stdDeviation="2.10265"/>
<feComposite in2="hardAlpha" operator="out"/>
<feColorMatrix type="matrix" values="0 0 0 0 0 0 0 0 0 0 0 0 0 0 0 0 0 0 0.25 0"/>
<feBlend mode="normal" in2="BackgroundImageFix" result="effect1_dropShadow_661_1096"/>
<feBlend mode="normal" in="SourceGraphic" in2="effect1_dropShadow_661_1096" result="shape"/>
</filter>
</defs>
</svg>
