<svg width="6" height="8" viewBox="0 0 6 8" fill="none" xmlns="http://www.w3.org/2000/svg">
<path d="M2.79741 0.777344C1.28278 0.777344 0 1.86596 0 3.15527C0 4.50556 1.48692 5.88645 2.48705 6.85699C2.49097 6.86089 2.65262 7.01228 2.85168 7.01228H2.86923C3.06851 7.01228 3.22901 6.86089 3.23293 6.85699C4.17141 5.94666 5.54217 4.44536 5.54217 3.15527C5.54217 1.86576 4.54158 0.777344 2.79741 0.777344ZM2.89001 6.5955C2.88193 6.60232 2.87015 6.60992 2.85976 6.61635C2.84914 6.61012 2.83759 6.60232 2.82905 6.5955L2.70827 6.4782C1.7601 5.56047 0.461616 4.30351 0.461616 3.15507C0.461616 2.07717 1.53126 1.16665 2.79718 1.16665C4.37416 1.16665 5.08009 2.16525 5.08009 3.15507C5.08009 4.02682 4.34321 5.18461 2.89001 6.5955ZM2.77917 1.95715C2.01412 1.95715 1.39362 2.48051 1.39362 3.12624C1.39362 3.77196 2.01412 4.29532 2.77917 4.29532C3.54422 4.29532 4.16471 3.77177 4.16471 3.12624C4.16471 2.4807 3.54445 1.95715 2.77917 1.95715ZM2.77917 3.90563C2.26975 3.90563 1.84485 3.5475 1.84485 3.11766C1.84485 2.68783 2.25913 2.33827 2.76854 2.33827C3.27819 2.33827 3.69224 2.68783 3.69224 3.11766C3.69247 3.5475 3.28882 3.90563 2.77917 3.90563Z" fill="#D356F3"/>
</svg>
