<svg width="31" height="31" viewBox="0 0 31 31" fill="none" xmlns="http://www.w3.org/2000/svg">
<path d="M22.963 15.5C22.963 15.9568 22.7815 16.3948 22.4585 16.7178C22.1356 17.0408 21.6975 17.2222 21.2407 17.2222H9.75926C9.3025 17.2222 8.86445 17.0408 8.54147 16.7178C8.21849 16.3948 8.03704 15.9568 8.03704 15.5C8.03704 15.0432 8.21849 14.6052 8.54147 14.2822C8.86445 13.9592 9.3025 13.7778 9.75926 13.7778H21.2407C21.6975 13.7778 22.1356 13.9592 22.4585 14.2822C22.7815 14.6052 22.963 15.0432 22.963 15.5ZM31 15.5C31 18.5656 30.0909 21.5624 28.3878 24.1113C26.6846 26.6603 24.2638 28.647 21.4316 29.8201C18.5993 30.9933 15.4828 31.3002 12.4761 30.7022C9.4694 30.1041 6.70756 28.6279 4.53985 26.4602C2.37214 24.2924 0.895906 21.5306 0.297835 18.5239C-0.300236 15.5172 0.00671593 12.4007 1.17987 9.56841C2.35303 6.73615 4.33971 4.31538 6.88867 2.61222C9.43763 0.909059 12.4344 0 15.5 0C19.6095 0.00455847 23.5493 1.63905 26.4551 4.54488C29.3609 7.4507 30.9954 11.3905 31 15.5ZM27.5556 15.5C27.5556 13.1156 26.8485 10.7848 25.5238 8.80229C24.1991 6.81977 22.3163 5.27457 20.1135 4.36212C17.9106 3.44966 15.4866 3.21092 13.1481 3.67609C10.8095 4.14125 8.66144 5.28943 6.97544 6.97543C5.28944 8.66143 4.14126 10.8095 3.6761 13.1481C3.21093 15.4866 3.44967 17.9106 4.36213 20.1135C5.27458 22.3163 6.81977 24.1991 8.8023 25.5238C10.7848 26.8485 13.1156 27.5555 15.5 27.5555C18.6963 27.5521 21.7607 26.2809 24.0208 24.0208C26.2809 21.7607 27.5521 18.6963 27.5556 15.5Z" fill="#5D1A92"/>
</svg>
