<svg width="31" height="31" viewBox="0 0 31 31" fill="none" xmlns="http://www.w3.org/2000/svg">
<path d="M15.5 0C12.4344 0 9.43763 0.909059 6.88867 2.61222C4.33971 4.31538 2.35303 6.73615 1.17987 9.56841C0.00671593 12.4007 -0.300236 15.5172 0.297835 18.5239C0.895906 21.5306 2.37214 24.2924 4.53985 26.4602C6.70756 28.6279 9.4694 30.1041 12.4761 30.7022C15.4828 31.3002 18.5993 30.9933 21.4316 29.8201C24.2638 28.647 26.6846 26.6603 28.3878 24.1113C30.0909 21.5624 31 18.5656 31 15.5C30.9954 11.3905 29.3609 7.4507 26.4551 4.54488C23.5493 1.63905 19.6095 0.00455847 15.5 0ZM15.5 27.5555C13.1156 27.5555 10.7848 26.8485 8.8023 25.5238C6.81977 24.1991 5.27458 22.3163 4.36213 20.1135C3.44967 17.9106 3.21093 15.4866 3.6761 13.1481C4.14126 10.8095 5.28944 8.66143 6.97544 6.97543C8.66144 5.28943 10.8095 4.14125 13.1481 3.67609C15.4866 3.21092 17.9106 3.44966 20.1135 4.36212C22.3163 5.27457 24.1991 6.81977 25.5238 8.80229C26.8485 10.7848 27.5556 13.1156 27.5556 15.5C27.5521 18.6963 26.2809 21.7607 24.0208 24.0208C21.7607 26.2809 18.6963 27.5521 15.5 27.5555ZM22.963 15.5C22.963 15.9568 22.7815 16.3948 22.4585 16.7178C22.1356 17.0408 21.6975 17.2222 21.2407 17.2222H17.2222V21.2407C17.2222 21.6975 17.0408 22.1356 16.7178 22.4585C16.3948 22.7815 15.9568 22.963 15.5 22.963C15.0432 22.963 14.6052 22.7815 14.2822 22.4585C13.9592 22.1356 13.7778 21.6975 13.7778 21.2407V17.2222H9.75926C9.3025 17.2222 8.86445 17.0408 8.54147 16.7178C8.21849 16.3948 8.03704 15.9568 8.03704 15.5C8.03704 15.0432 8.21849 14.6052 8.54147 14.2822C8.86445 13.9592 9.3025 13.7778 9.75926 13.7778H13.7778V9.75926C13.7778 9.3025 13.9592 8.86444 14.2822 8.54146C14.6052 8.21848 15.0432 8.03704 15.5 8.03704C15.9568 8.03704 16.3948 8.21848 16.7178 8.54146C17.0408 8.86444 17.2222 9.3025 17.2222 9.75926V13.7778H21.2407C21.6975 13.7778 22.1356 13.9592 22.4585 14.2822C22.7815 14.6052 22.963 15.0432 22.963 15.5Z" fill="#D356F3"/>
</svg>
