<svg width="256" height="256" viewBox="0 0 256 256" fill="none" xmlns="http://www.w3.org/2000/svg">
<path d="M244.5 14.6001C244.5 14.6001 251.4 0.900092 236.1 8.60009C236.1 8.60009 235.5 8.00009 224.9 43.9001L223.1 48.1001L219.5 38.1001L210.5 35.5001L220.8 6.20009C220.8 6.20009 219.6 -6.19991 212 9.10009L204.9 33.8001L137 14.6001L116.4 18.1001L11.6001 144.1C11.6001 144.1 6.30005 158.2 14.5001 167L109.2 249.4C109.2 249.4 119.8 258.2 131.6 252.3L242.2 121.6C242.2 121.6 246.9 118.7 242.2 101.6L226.5 58.1001L232.3 47.3001C232.5 47.5001 240.1 19.4001 244.5 14.6001ZM229 119.3L131.3 238.2L126 240C122.5 242.3 115.9 240 115.9 240L25.4001 162.3C20.7001 158.8 25.4001 147.6 25.4001 147.6L125.9 28.0001H135.9L138.8 30.9001L208.3 49.1001V56.2001L191.2 66.2001L191.5 66.6001L191.2 66.7001C187 62.5001 181.2 59.6001 174.8 59.6001C161.8 59.6001 151.2 70.1001 151.2 83.1001C151.2 96.1001 161.7 106.6 174.8 106.6C187.8 106.6 198.3 96.1001 198.3 83.1001C198.3 79.4001 197 76.1001 195.5 73.0001L195.9 73.7001L214.1 65.5001L228.8 107.9C234.2 114.6 229 119.3 229 119.3ZM186.5 83.4001C186.5 89.9001 181.2 95.2001 174.8 95.2001C168.3 95.2001 163 89.9001 163 83.4001C163 76.8001 168.3 71.6001 174.8 71.6001C181.3 71.6001 186.5 76.8001 186.5 83.4001Z" fill="#D356F3"/>
</svg>
