<svg width="238" height="238" viewBox="0 0 238 238" fill="none" xmlns="http://www.w3.org/2000/svg">
<path d="M54.5999 1.4C52.3999 2.2 50.3 4 49.2 6.1L48.2 8V57.4V106.8L49.4 109.1C50.2 110.7 51.1999 111.8 52.7999 112.8L55 114.2H128.5H202L204.2 112.8C205.8 111.8 206.8 110.7 207.6 109.1L208.8 106.8V57.4V8L207.5 5.8C206.2 3.4 204.6 2.2 202.1 1.4C200 0.7 56.6999 0.7 54.5999 1.4ZM199.2 57.5L199.3 104.7H128.4H57.5999V57.7C57.5999 31.9 57.7 10.5 57.9 10.4C58 10.2 89.9 10.1 128.6 10.2L199 10.3L199.2 57.5Z" fill="#D356F3"/>
<path d="M103.5 20.3999C97.7 22.6999 94.8 27.5999 95.6 33.4999C96.2 37.6999 99.7 41.7999 103.8 42.8999C105 43.1999 114.1 43.3999 129.5 43.2999C156.1 43.1999 154.6 43.2999 158 39.8999C160.2 37.6999 161 35.7999 161.3 32.6999C161.8 27.6999 159.2 23.0999 154.7 20.8999C152.9 19.9999 151.7 19.9999 128.9 19.8999C111.3 19.8999 104.6 19.9999 103.5 20.3999ZM151.2 29.6999C152.2 30.7999 152.3 32.1999 151.3 33.0999C150.3 34.0999 149.9 34.0999 128.4 34.0999C107.1 34.0999 106.4 34.0999 105.6 33.1999C105.1 32.6999 104.7 31.9999 104.7 31.6999C104.7 30.8999 105.7 29.6999 106.5 29.3999C107.8 28.8999 150.8 29.1999 151.2 29.6999Z" fill="#D356F3"/>
<path d="M53.7 134.1C51.7 134.5 48.4 135.3 46.5 135.9C39.2 138.4 15.3 148.9 5.3 153.9C1.6 155.8 0.499996 157.5 1.1 160.1C1.7 162.3 4.1 163.9 6.1 163.5C6.8 163.4 11.5 161.4 16.3 159.2C32.5 151.7 45.7 146.1 50.9 144.5C55.9 142.9 63 142.4 69.5 143C76.3 143.6 79.4 144.5 84.2 146.8C87.4 148.4 88.8 149.5 93.7 154.3C96.8 157.4 100.3 160.5 101.5 161.2C108.3 165.2 126.1 169.7 138.7 170.8C142 171.1 145.9 171.4 147.4 171.5C150.4 171.7 153.8 173.1 155.4 174.6C157.8 176.9 157.1 181.2 154 183C150.5 185 148 185.2 126.4 185C104.6 184.8 103.7 184.7 90.9 181.7C85 180.3 83.6 180.5 82 183C80.9 184.7 80.9 185.7 81.8 187.4C82.7 189.2 84.6 190 91.8 191.6C105.1 194.6 106.2 194.6 128.7 194.6C146.7 194.6 149.6 194.5 152.4 193.8C156.1 192.8 158.7 191.5 161.3 189.5C164.2 187.2 205.2 159.6 208.7 157.7C215 154.2 221.8 152.8 224.8 154.3C229.4 156.7 228.2 161.9 221.9 167.2C218.7 169.9 164.4 206 148.5 216.1C131 227.1 129.6 227.8 122.2 227.5C114.9 227.2 115.3 227.4 79.5 208.9C60.2 198.9 57.3 197.8 52.1 198.2C48 198.5 44 200.5 34.1 207C28.6 210.6 27.1 211.8 26.6 213.1C25.8 215.1 26.1 216.5 27.8 218.1C30.2 220.4 31.5 220 39.9 214.5C49.6 208.2 50.7 207.7 53.8 207.7C56.2 207.7 57.2 208.1 67.1 213.2C73 216.2 84.4 222 92.4 226.1C100.5 230.3 108.8 234.2 110.9 234.9C121.7 238.5 130.3 237.8 140.1 232.2C148.8 227.3 178.7 207.9 210.5 186.5C231.5 172.3 234.8 169.3 236.7 162.1C238.4 155.6 234.9 148.5 228.8 145.8C223.4 143.4 217.4 143.8 209.1 147C208.5 147.2 208.3 147 208 145.8C207.5 143.5 203.5 139.8 200.4 138.8C196.9 137.7 191.8 137.8 187 139.1C184.8 139.7 182.8 140.3 182.3 140.5C181.8 140.7 181.2 140.3 180.3 138.9C176.8 133.7 169.8 132.3 159.9 134.7C155.1 135.9 151.7 137.8 134.8 148.4L119.7 157.8L116.1 156.7C107.4 154.1 105.2 152.8 101.2 148.3C94.2 140.3 85.8 135.7 74.8 134C69.2 133.2 58.6 133.2 53.7 134.1ZM171.7 143.5C172.2 143.8 172.6 144.5 172.6 145.1C172.6 146 170.5 147.6 161.1 154.1L149.6 162L142.1 161.5C138 161.2 134.4 160.9 134 160.7C133.6 160.5 137.3 157.9 145.1 153.1C151.5 149.1 157.6 145.5 158.5 145.1C162.9 143.2 169.6 142.4 171.7 143.5ZM198.4 148.4C198.9 148.9 199.3 149.8 199.3 150.7C199.3 152.2 198.8 152.5 183.1 163.2C174.1 169.2 166.6 174.2 166.3 174.3C166 174.4 165.5 173.7 165.2 172.6C164.8 171.5 163.6 169.7 162.5 168.4C161.3 167.1 160.6 166 160.7 165.9C161.9 164.7 181.9 151.3 184.2 150.1C189.6 147.3 196.4 146.5 198.4 148.4Z" fill="#D356F3"/>
</svg>
