<svg width="18" height="18" viewBox="0 0 18 18" fill="none" xmlns="http://www.w3.org/2000/svg">
<path d="M7.72987 10.2695L11.3644 6.63489M15.0825 4.41675L12.0145 14.3877C11.7396 15.2813 11.602 15.7283 11.3648 15.8765C11.1592 16.0049 10.9045 16.0265 10.6804 15.9335C10.4221 15.8263 10.2125 15.4077 9.79425 14.5712L7.85107 10.6848C7.7847 10.5521 7.75147 10.486 7.70715 10.4285C7.66777 10.3775 7.6224 10.3314 7.5714 10.2921C7.51515 10.2488 7.45017 10.2163 7.32335 10.1529L3.42796 8.20517C2.59149 7.78697 2.17321 7.57764 2.06603 7.31934C1.97307 7.09532 1.99427 6.84042 2.12279 6.63472C2.27098 6.39755 2.71794 6.25977 3.6118 5.98473L13.5827 2.91675C14.2855 2.70053 14.637 2.59251 14.8743 2.67964C15.0811 2.75554 15.244 2.91837 15.3199 3.12513C15.407 3.36237 15.2989 3.71369 15.0829 4.41571L15.0825 4.41675Z" stroke="#39046B" stroke-width="1.5" stroke-linecap="round" stroke-linejoin="round"/>
</svg>
