<svg width="55" height="55" viewBox="0 0 55 55" fill="none" xmlns="http://www.w3.org/2000/svg">
<path d="M27.7581 0.129883C12.7447 0.129883 0.574219 12.3003 0.574219 27.3138C0.574219 42.3268 12.7447 54.4977 27.7581 54.4977C42.7711 54.4977 54.942 42.3272 54.942 27.3138C54.942 12.3003 42.7716 0.129883 27.7581 0.129883Z" fill="#630C93"/>
<path d="M27.7557 10.2012C21.5038 10.2012 16.4365 15.2689 16.4365 21.5204C16.4365 27.7723 21.5038 32.84 27.7557 32.84C34.0076 32.84 39.0749 27.7723 39.0749 21.5204C39.0749 15.2697 34.0076 10.2012 27.7557 10.2012ZM27.7557 29.7234C23.2259 29.7234 19.5535 26.0514 19.5535 21.5212C19.5535 16.9915 23.2259 13.3195 27.7557 13.3195C32.2855 13.3195 35.9579 16.9919 35.9579 21.5217C35.9579 26.0514 32.2855 29.7234 27.7557 29.7234Z" fill="white"/>
<path d="M27.7604 29.7285C20.44 29.7285 14.1243 33.9629 11.082 40.1073C11.7729 41.0075 12.5333 41.8487 13.3583 42.6256C15.6371 36.8977 21.2196 32.8425 27.7604 32.8425C34.3012 32.8425 39.8836 36.8977 42.1625 42.6256C42.9875 41.8496 43.7479 41.0084 44.4387 40.1073C41.3965 33.9629 35.0807 29.7285 27.7604 29.7285Z" fill="white"/>
</svg>
