<svg width="53" height="53" viewBox="0 0 53 53" fill="none" xmlns="http://www.w3.org/2000/svg">
<circle cx="26.617" cy="26.4304" r="25.8894" fill="#630C93"/>
<path d="M43.4643 16.3717L41.2621 14.1691C41.0057 13.9116 40.5974 13.8905 40.3161 14.1163C39.6798 14.6257 38.9687 14.8846 38.203 14.8846C36.3619 14.8846 34.8644 13.3865 34.8644 11.5446C34.8644 10.7786 35.1232 10.0672 35.6324 9.43056C35.8591 9.14737 35.8361 8.7398 35.5806 8.48369L33.378 6.28106C32.6283 5.53063 31.2745 5.53246 30.528 6.27968L26.7188 10.0658L27.6955 11.043C27.9731 11.3206 27.9731 11.77 27.6955 12.0477C27.557 12.1853 27.3748 12.2551 27.1932 12.2551C27.0115 12.2551 26.8293 12.1853 26.6908 12.0467L25.7113 11.0668L9.07496 27.5997C8.70013 27.9742 8.49414 28.4809 8.49414 29.0257C8.49414 29.5714 8.70059 30.0772 9.07496 30.4527L11.2771 32.6558C11.5336 32.9114 11.94 32.9348 12.2231 32.7081C12.8989 32.166 13.6752 31.8682 14.4074 31.8682C16.2485 31.8682 17.7459 33.3663 17.7459 35.2072C17.7459 36.0146 17.4574 36.7792 16.9339 37.3612C16.6811 37.6426 16.6926 38.0717 16.9596 38.3393L19.1617 40.5429C19.5361 40.9174 20.0426 41.1235 20.5872 41.1235C21.1322 41.1235 21.6378 40.9174 22.0126 40.5429L38.5943 23.954L37.6304 22.9906C37.3529 22.7134 37.3529 22.2636 37.6304 21.9854C37.9085 21.7078 38.3571 21.7078 38.6347 21.9854L39.5986 22.9493L43.3629 19.1838C43.7533 18.8708 43.9965 18.4036 44.0327 17.8923C44.0722 17.3277 43.8648 16.7724 43.4643 16.3717ZM30.6813 15.0342C30.5432 15.1728 30.361 15.2426 30.1794 15.2426C29.9972 15.2426 29.8156 15.1728 29.677 15.0342L28.6796 14.0369C28.402 13.7596 28.402 13.3098 28.6796 13.0317C28.9576 12.754 29.4063 12.754 29.6843 13.0317L30.6813 14.0295C30.9593 14.3067 30.9593 14.7565 30.6813 15.0342ZM33.6725 18.0268C33.534 18.1654 33.3523 18.2351 33.1706 18.2351C32.9885 18.2351 32.8068 18.1654 32.6683 18.0268L31.6718 17.0289C31.3938 16.7513 31.3938 16.3015 31.6718 16.0242C31.9493 15.7466 32.3985 15.7466 32.6761 16.0242L33.6725 17.0221C33.9505 17.2997 33.9505 17.7495 33.6725 18.0268ZM36.6642 21.0198C36.5261 21.1584 36.344 21.2281 36.1623 21.2281C35.9807 21.2281 35.7985 21.1584 35.66 21.0198L34.6626 20.0224C34.385 19.7452 34.385 19.2954 34.6626 19.0172C34.9406 18.7396 35.3893 18.7396 35.6673 19.0172L36.6642 20.0151C36.9413 20.2923 36.9413 20.7421 36.6642 21.0198Z" fill="#D356F3"/>
<path d="M46.6137 21.2038L44.7451 18.7115C44.5276 18.421 44.1266 18.342 43.816 18.5261C43.1141 18.9401 42.3736 19.0957 41.6157 18.9874C39.793 18.7271 38.5222 17.0326 38.7823 15.2091C38.8906 14.4508 39.247 13.783 39.8412 13.2249C40.1054 12.9766 40.1407 12.5699 39.9237 12.2803L38.0542 9.78807C37.4188 8.93942 36.0782 8.74987 35.2336 9.38371L30.9275 12.5933L31.756 13.6986C31.9919 14.013 31.9285 14.4577 31.6143 14.6932C31.4574 14.8102 31.2679 14.8534 31.0876 14.8277C30.9078 14.8019 30.7376 14.7074 30.6201 14.5504L29.7888 13.442L10.9838 27.456C10.5594 27.7736 10.2837 28.2459 10.2071 28.7856C10.1295 29.3259 10.2631 29.856 10.5805 30.2805L12.4491 32.7728C12.6666 33.0619 13.0657 33.1427 13.3782 32.9587C14.1237 32.5171 14.9344 32.3322 15.6592 32.4359C17.482 32.6961 18.7523 34.3907 18.4922 36.2137C18.3784 37.0128 17.9848 37.7288 17.3843 38.2309C17.0943 38.4737 17.0448 38.9001 17.2714 39.2026L19.14 41.6953C19.4575 42.1194 19.93 42.3948 20.4691 42.4719C21.0086 42.549 21.5385 42.4164 21.9624 42.0988L40.7216 28.0214L39.9035 26.9314C39.6677 26.6174 39.731 26.1722 40.0453 25.9363C40.3596 25.7008 40.8041 25.7642 41.0399 26.0786L41.858 27.1687L46.1159 23.9732C46.5472 23.719 46.8536 23.2903 46.9614 22.7895C47.0807 22.236 46.9536 21.6572 46.6137 21.2038ZM34.1481 18.0722C33.9917 18.1901 33.8018 18.2333 33.6219 18.2076C33.4416 18.1819 33.2714 18.0869 33.154 17.9303L32.308 16.8017C32.0721 16.4878 32.1355 16.0426 32.4497 15.8067C32.764 15.5712 33.2085 15.6345 33.4439 15.9489L34.2904 17.0776C34.5262 17.391 34.4624 17.8367 34.1481 18.0722ZM36.6866 21.4576C36.5301 21.5751 36.3402 21.6187 36.1599 21.593C35.98 21.5673 35.8098 21.4723 35.6924 21.3158L34.8469 20.1871C34.611 19.8727 34.6748 19.4275 34.9886 19.1921C35.3029 18.9566 35.7474 19.02 35.9828 19.3344L36.8288 20.463C37.0641 20.7774 37.0008 21.2226 36.6866 21.4576ZM39.2255 24.8439C39.069 24.9614 38.8791 25.0046 38.6988 24.9789C38.5189 24.9532 38.3487 24.8586 38.2313 24.7016L37.3848 23.573C37.149 23.2595 37.2128 22.8143 37.5271 22.5784C37.8413 22.3425 38.2854 22.4058 38.5212 22.7202L39.3677 23.8493C39.6026 24.1628 39.5393 24.608 39.2255 24.8439Z" fill="black"/>
<path d="M48.1542 28.9819L46.7576 26.0154C46.5948 25.669 46.1979 25.5024 45.8391 25.626C45.0273 25.9038 44.2309 25.9067 43.4722 25.6342C41.6487 24.9782 40.6988 22.9606 41.3541 21.1363C41.627 20.3773 42.1365 19.7651 42.8676 19.3158C43.1926 19.1163 43.3153 18.7042 43.153 18.3597L41.7554 15.3928C41.2802 14.3825 39.9386 13.9023 38.9332 14.3758L33.8117 16.7692L34.4313 18.0848C34.6076 18.4592 34.4478 18.9042 34.0735 19.0805C33.8876 19.1675 33.6823 19.1718 33.5022 19.1071C33.322 19.0419 33.167 18.9085 33.0791 18.7216L32.4576 17.4021L10.0932 27.8509C9.58807 28.0886 9.20366 28.5166 9.01001 29.0568C8.81539 29.5974 8.84001 30.1723 9.07761 30.6772L10.4742 33.6437C10.6375 33.9886 11.0315 34.1567 11.3928 34.0331C12.2548 33.7369 13.1299 33.7185 13.8557 33.9794C15.6792 34.635 16.6292 36.6526 15.9738 38.4765C15.6865 39.276 15.1287 39.9307 14.4029 40.3206C14.0523 40.5095 13.9108 40.9385 14.0798 41.2984L15.4769 44.2659C15.714 44.7702 16.1424 45.1548 16.6823 45.3486C17.2217 45.5428 17.7959 45.5191 18.3011 45.2814L40.6312 34.7573L40.0193 33.4596C39.843 33.0861 40.0034 32.6407 40.3771 32.4643C40.7514 32.288 41.1957 32.4479 41.372 32.8223L41.9838 34.12L47.0527 31.7309C47.551 31.5604 47.9581 31.184 48.1759 30.6907C48.4164 30.1453 48.4087 29.5215 48.1542 28.9819ZM35.9685 23.1026C35.7821 23.1906 35.5768 23.1949 35.3967 23.1302C35.2166 23.0654 35.0616 22.9316 34.9737 22.7451L34.341 21.4015C34.1643 21.028 34.3246 20.5821 34.6984 20.4058C35.0727 20.2299 35.5174 20.3898 35.6932 20.7638L36.3263 22.1074C36.5026 22.4808 36.3423 22.9263 35.9685 23.1026ZM37.8659 27.1324C37.6795 27.2204 37.4747 27.2247 37.2946 27.16C37.1145 27.0952 36.959 26.9614 36.8711 26.7749L36.2389 25.4313C36.0631 25.0574 36.223 24.6115 36.5968 24.4361C36.9711 24.2597 37.4153 24.4196 37.5916 24.7941L38.2238 26.1372C38.4 26.5116 38.2397 26.9571 37.8659 27.1324ZM39.7643 31.1632C39.5774 31.2512 39.3727 31.2555 39.1925 31.1908C39.0124 31.126 38.8569 30.9922 38.769 30.8057L38.1364 29.4621C37.9601 29.0887 38.1204 28.6427 38.4942 28.4669C38.8685 28.2905 39.3128 28.4504 39.489 28.8244L40.1217 30.168C40.2975 30.5414 40.1376 30.9869 39.7643 31.1632Z" fill="white"/>
</svg>
