<svg width="19" height="19" viewBox="0 0 19 19" fill="none" xmlns="http://www.w3.org/2000/svg">
<path d="M12.1831 13.4285C12.7035 13.949 13.394 14.2319 14.1289 14.2319H14.2603L10.9578 17.5344C9.92095 18.5712 8.22781 18.5712 7.19101 17.5344L3.89936 14.2428H4.21676C4.95167 14.2428 5.64217 13.9599 6.1626 13.4395L8.8868 10.7153C9.03742 10.5647 9.31922 10.5647 9.46983 10.7153L12.1831 13.4285Z" fill="#37B5AA" stroke="white" stroke-width="0.181176"/>
<path d="M9.46027 7.97252L9.4604 7.97239L12.1845 5.25925L9.46027 7.97252ZM9.46027 7.97252C9.29871 8.13407 9.03879 8.13407 8.87724 7.97252L6.15303 5.24831C5.6326 4.72788 4.9421 4.44499 4.20719 4.44499H3.87886L7.1705 1.15335C8.2073 0.116544 9.90045 0.116544 10.9372 1.15335L14.2398 4.45593M9.46027 7.97252L14.2398 4.45593M14.2398 4.45593H14.1303C13.3955 4.45593 12.705 4.73877 12.1846 5.25912L14.2398 4.45593Z" fill="#37B5AA" stroke="white" stroke-width="0.181176"/>
<path d="M12.87 5.95661L12.87 5.95661L12.871 5.95558C13.1924 5.6238 13.65 5.43611 14.1188 5.43611H15.0707C15.114 5.43611 15.1588 5.43048 15.2012 5.41819L17.2495 7.46641C18.2863 8.50321 18.2863 10.1854 17.2495 11.2222L15.2001 13.2715C15.1592 13.2593 15.1182 13.2525 15.0707 13.2525H14.1188C13.6615 13.2525 13.2032 13.0652 12.87 12.732L10.1568 10.0187C9.62906 9.49104 8.70739 9.49104 8.17969 10.0187L5.45548 12.743L5.45547 12.7429L5.45447 12.744C5.13306 13.0758 4.67546 13.2635 4.20666 13.2635H3.03602C2.99228 13.2635 2.95302 13.2692 2.9157 13.2807L0.86819 11.2332C-0.168612 10.1964 -0.168612 8.50321 0.86819 7.46641L2.92664 5.40796C2.96396 5.41942 3.00322 5.42517 3.04696 5.42517H4.2176C4.67492 5.42517 5.13328 5.61252 5.46642 5.94566L8.19063 8.66987C8.4594 8.93865 8.81073 9.07933 9.17369 9.07933C9.52532 9.07933 9.88771 8.93893 10.1568 8.66987L12.87 5.95661Z" fill="#37B5AA" stroke="white" stroke-width="0.181176"/>
</svg>
