<svg width="25" height="25" viewBox="0 0 25 25" fill="none" xmlns="http://www.w3.org/2000/svg">
<path d="M22.9167 5.20825C22.9167 6.93414 21.5176 8.33325 19.7917 8.33325C18.0657 8.33325 16.6667 6.93414 16.6667 5.20825C16.6667 3.48237 18.0657 2.08325 19.7917 2.08325C21.5176 2.08325 22.9167 3.48237 22.9167 5.20825Z" fill="white"/>
<path d="M16.2876 2.09467C15.6365 2.08325 14.9011 2.08325 14.0625 2.08325H10.9375C7.52766 2.08325 5.82274 2.08325 4.5703 2.85075C3.86949 3.28021 3.28027 3.86943 2.85081 4.57024C2.08331 5.82268 2.08331 7.5276 2.08331 10.9374V11.9791C2.08331 14.4059 2.08331 15.6193 2.47977 16.5764C3.00839 17.8526 4.02231 18.8665 5.2985 19.3951C5.98632 19.68 6.80646 19.7601 8.11413 19.7827C8.9999 19.7979 9.44278 19.8055 9.79455 20.0101C10.1463 20.2148 10.3653 20.5847 10.8033 21.3247L11.368 22.2788C11.8713 23.1291 13.1286 23.1291 13.632 22.2788L14.1966 21.3247C14.6346 20.5847 14.8536 20.2147 15.2054 20.0101C15.5572 19.8055 16 19.7979 16.8858 19.7827C18.1935 19.7601 19.0136 19.68 19.7014 19.3951C20.9777 18.8665 21.9915 17.8526 22.5202 16.5764C22.9166 15.6193 22.9166 14.4059 22.9166 11.9791V10.9374C22.9166 10.0988 22.9166 9.36335 22.9052 8.71236C22.0773 9.44854 20.9868 9.89575 19.7916 9.89575C17.2028 9.89575 15.1041 7.79709 15.1041 5.20825C15.1041 4.0132 15.5513 2.9226 16.2876 2.09467Z" fill="#D356F3"/>
</svg>
