<svg width="33" height="33" viewBox="0 0 33 33" fill="none" xmlns="http://www.w3.org/2000/svg">
<path d="M32.5 4.875C32.5 7.56738 30.3175 9.75 27.625 9.75C24.9325 9.75 22.75 7.56738 22.75 4.875C22.75 2.18262 24.9325 0 27.625 0C30.3175 0 32.5 2.18262 32.5 4.875Z" fill="#D356F3"/>
<path d="M22.1587 0.0178102C21.143 1.66474e-07 19.9958 0 18.6875 0H13.8125C8.49318 0 5.83351 -9.68576e-08 3.8797 1.1973C2.78644 1.86726 1.86725 2.78644 1.1973 3.8797C-9.68575e-08 5.83351 0 8.49318 0 13.8125V15.4375C0 19.2233 -4.84288e-08 21.1162 0.618475 22.6093C1.44311 24.6002 3.02484 26.1818 5.01569 27.0065C6.0887 27.451 7.36811 27.5759 9.40807 27.6112C10.7899 27.6349 11.4808 27.6468 12.0295 27.9659C12.5783 28.2852 12.9199 28.8623 13.6032 30.0167L14.4841 31.505C15.2693 32.8315 17.2307 32.8315 18.0159 31.505L18.8968 30.0167C19.58 28.8623 19.9217 28.2851 20.4705 27.9659C21.0192 27.6468 21.71 27.6349 23.0919 27.6112C25.1319 27.5759 26.4113 27.451 27.4843 27.0065C29.4752 26.1818 31.0568 24.6002 31.8815 22.6093C32.5 21.1162 32.5 19.2233 32.5 15.4375V13.8125C32.5 12.5043 32.5 11.3569 32.4821 10.3414C31.1906 11.4899 29.4894 12.1875 27.625 12.1875C23.5864 12.1875 20.3125 8.91358 20.3125 4.875C20.3125 3.01072 21.0101 1.30938 22.1587 0.0178102Z" fill="#00FF01"/>
</svg>
